<?xml version="1.0" encoding="UTF-8"?>
<svg xmlns="http://www.w3.org/2000/svg" xmlns:xlink="http://www.w3.org/1999/xlink" width="2100" height="2100" viewBox="0 0 2100 2100">
<defs>
<radialGradient id="radial-pattern-0" gradientUnits="userSpaceOnUse" cx="0" cy="0" fx="0" fy="0" r="1050" gradientTransform="matrix(1, 0, 0, 1, 1050, 1050)">
<stop offset="0" stop-color="rgb(100%, 100%, 100%)" stop-opacity="1"/>
<stop offset="0.125" stop-color="rgb(100%, 99.993896%, 99.884033%)" stop-opacity="1"/>
<stop offset="0.152344" stop-color="rgb(99.934387%, 99.961853%, 99.682617%)" stop-opacity="1"/>
<stop offset="0.164062" stop-color="rgb(99.739075%, 99.894714%, 99.591064%)" stop-opacity="1"/>
<stop offset="0.214844" stop-color="rgb(99.607849%, 99.850464%, 99.530029%)" stop-opacity="1"/>
<stop offset="0.226562" stop-color="rgb(99.595642%, 99.694824%, 99.269104%)" stop-opacity="1"/>
<stop offset="0.25" stop-color="rgb(99.487305%, 99.462891%, 99.034119%)" stop-opacity="1"/>
<stop offset="0.261719" stop-color="rgb(99.287415%, 99.349976%, 98.999023%)" stop-opacity="1"/>
<stop offset="0.28125" stop-color="rgb(99.186707%, 99.307251%, 98.809814%)" stop-opacity="1"/>
<stop offset="0.300781" stop-color="rgb(99.058533%, 99.256897%, 98.606873%)" stop-opacity="1"/>
<stop offset="0.34375" stop-color="rgb(98.86322%, 99.185181%, 98.413086%)" stop-opacity="1"/>
<stop offset="0.363281" stop-color="rgb(98.789978%, 99.081421%, 98.181152%)" stop-opacity="1"/>
<stop offset="0.371094" stop-color="rgb(98.774719%, 98.884583%, 98.071289%)" stop-opacity="1"/>
<stop offset="0.410156" stop-color="rgb(98.76709%, 98.764038%, 98.017883%)" stop-opacity="1"/>
<stop offset="0.425781" stop-color="rgb(98.609924%, 98.713684%, 98.008728%)" stop-opacity="1"/>
<stop offset="0.441406" stop-color="rgb(98.413086%, 98.643494%, 97.845459%)" stop-opacity="1"/>
<stop offset="0.457031" stop-color="rgb(98.374939%, 98.622131%, 97.648621%)" stop-opacity="1"/>
<stop offset="0.488281" stop-color="rgb(98.365784%, 98.477173%, 97.544861%)" stop-opacity="1"/>
<stop offset="0.503906" stop-color="rgb(98.352051%, 98.28186%, 97.457886%)" stop-opacity="1"/>
<stop offset="0.53125" stop-color="rgb(98.347473%, 98.22998%, 97.396851%)" stop-opacity="1"/>
<stop offset="0.542969" stop-color="rgb(98.347473%, 98.220825%, 97.203064%)" stop-opacity="1"/>
<stop offset="0.570312" stop-color="rgb(98.217773%, 98.171997%, 97.042847%)" stop-opacity="1"/>
<stop offset="0.582031" stop-color="rgb(98.022461%, 98.109436%, 97.0047%)" stop-opacity="1"/>
<stop offset="0.605469" stop-color="rgb(97.955322%, 98.059082%, 96.781921%)" stop-opacity="1"/>
<stop offset="0.652344" stop-color="rgb(97.941589%, 97.848511%, 96.336365%)" stop-opacity="1"/>
<stop offset="0.695312" stop-color="rgb(97.929382%, 97.665405%, 96.086121%)" stop-opacity="1"/>
<stop offset="0.710938" stop-color="rgb(97.929382%, 97.657776%, 95.93811%)" stop-opacity="1"/>
<stop offset="0.726562" stop-color="rgb(97.782898%, 97.602844%, 95.73822%)" stop-opacity="1"/>
<stop offset="0.742188" stop-color="rgb(97.587585%, 97.538757%, 95.684814%)" stop-opacity="1"/>
<stop offset="0.773438" stop-color="rgb(97.538757%, 97.518921%, 95.593262%)" stop-opacity="1"/>
<stop offset="0.785156" stop-color="rgb(97.538757%, 97.509766%, 95.399475%)" stop-opacity="1"/>
<stop offset="0.808594" stop-color="rgb(97.398376%, 97.332764%, 95.233154%)" stop-opacity="1"/>
<stop offset="0.820312" stop-color="rgb(97.190857%, 97.076416%, 95.068359%)" stop-opacity="1"/>
<stop offset="0.863281" stop-color="rgb(97.053528%, 96.963501%, 94.842529%)" stop-opacity="1"/>
<stop offset="0.894531" stop-color="rgb(96.858215%, 96.896362%, 94.715881%)" stop-opacity="1"/>
<stop offset="0.917969" stop-color="rgb(96.731567%, 96.855164%, 94.648743%)" stop-opacity="1"/>
<stop offset="0.925781" stop-color="rgb(96.725464%, 96.742249%, 94.412231%)" stop-opacity="1"/>
<stop offset="0.960938" stop-color="rgb(96.563721%, 96.492004%, 94.047546%)" stop-opacity="1"/>
<stop offset="0.980469" stop-color="rgb(96.362305%, 96.333313%, 93.809509%)" stop-opacity="1"/>
<stop offset="1" stop-color="rgb(96.316528%, 96.316528%, 93.763733%)" stop-opacity="1"/>
</radialGradient>
</defs>
<rect x="-210" y="-210" width="2520" height="2520" fill="url(#radial-pattern-0)"/>
<path fill-rule="nonzero" fill="rgb(16.419983%, 15.887451%, 15.855408%)" fill-opacity="1" d="M 973.246094 631.539062 C 909.207031 634.710938 840.242188 641.761719 804.523438 656.988281 C 740.519531 684.300781 677.171875 731.949219 656.929688 747.820312 C 651.574219 752.011719 648.09375 758.128906 647.191406 764.878906 C 644.476562 785.160156 642.902344 824.640625 619.488281 846.730469 C 599.78125 865.328125 574.765625 869.28125 559.910156 869.789062 C 551.148438 870.101562 542.835938 873.730469 536.648438 879.941406 L 520.558594 896.101562 C 507.09375 909.621094 507.136719 931.5 520.660156 944.96875 L 575.875 999.960938 C 589.398438 1013.421875 611.277344 1013.378906 624.746094 999.859375 L 641.421875 983.109375 C 647.332031 977.171875 650.878906 969.289062 651.414062 960.929688 C 655.191406 901.839844 707.847656 874.609375 724.4375 880.671875 C 742.132812 887.128906 773.148438 916.710938 773.148438 916.710938 C 778.472656 922.019531 786.925781 922.25 792.53125 917.410156 L 1375.539062 1498.019531 C 1389.589844 1512.011719 1412.328125 1511.96875 1426.320312 1497.921875 L 1447.578125 1476.558594 C 1461.570312 1462.511719 1461.53125 1439.78125 1447.480469 1425.789062 L 864.824219 845.53125 C 869.917969 839.75 869.511719 830.871094 863.726562 825.601562 C 851.164062 814.140625 831.867188 794.03125 825.015625 773.320312 C 814.523438 741.601562 838.195312 716.46875 886.515625 697.019531 C 904.433594 689.808594 940.71875 678.660156 979.285156 667.46875 C 1000.191406 661.410156 994.988281 630.46875 973.246094 631.539062 "/>
<path fill-rule="nonzero" fill="rgb(100%, 100%, 100%)" fill-opacity="1" d="M 564.097656 897.589844 C 580.1875 894.648438 623.773438 883.789062 640.199219 850.769531 C 640.355469 850.460938 640.480469 850.160156 640.621094 849.851562 C 638.457031 852.75 636.089844 855.539062 633.472656 858.171875 C 633.472656 858.171875 633.46875 858.179688 633.46875 858.179688 C 632.921875 858.71875 632.371094 859.261719 631.808594 859.789062 C 607.429688 882.789062 576.691406 887.171875 560.539062 887.738281 C 558.71875 887.800781 556.964844 888.199219 555.300781 888.828125 L 555.277344 888.808594 C 555.105469 888.871094 554.9375 888.960938 554.769531 889.03125 C 554.527344 889.128906 554.289062 889.230469 554.054688 889.339844 C 553.585938 889.558594 553.132812 889.808594 552.683594 890.070312 C 552.609375 890.109375 552.527344 890.148438 552.453125 890.191406 C 552.453125 890.191406 552.453125 890.199219 552.457031 890.199219 C 551.347656 890.871094 550.304688 891.671875 549.367188 892.609375 L 533.277344 908.769531 C 526.820312 915.25 526.839844 925.789062 533.328125 932.25 L 571.460938 970.21875 L 604.109375 937.441406 L 564.097656 897.589844 "/>
<path fill-rule="nonzero" fill="rgb(100%, 100%, 100%)" fill-opacity="1" d="M 588.542969 987.238281 C 595.03125 993.699219 605.5625 993.671875 612.023438 987.191406 L 628.703125 970.441406 C 631.539062 967.589844 633.242188 963.808594 633.5 959.78125 C 633.980469 952.21875 635.128906 945.210938 636.757812 938.730469 L 588.496094 987.191406 L 588.542969 987.238281 "/>
<path fill-rule="nonzero" fill="rgb(100%, 100%, 100%)" fill-opacity="1" d="M 712.5 854.039062 C 693.910156 858.929688 656.820312 873.660156 645.621094 914.679688 C 645.507812 915.101562 645.414062 915.480469 645.3125 915.890625 C 651.277344 904.191406 658.585938 895.160156 665.148438 888.570312 C 677.222656 876.449219 691.289062 867.941406 704.410156 864.140625 C 704.621094 864.078125 704.828125 864.019531 705.039062 863.960938 C 706.058594 863.671875 707.070312 863.421875 708.074219 863.191406 C 708.265625 863.148438 708.460938 863.109375 708.652344 863.070312 C 709.675781 862.851562 710.695312 862.648438 711.703125 862.5 C 711.847656 862.46875 711.984375 862.460938 712.128906 862.429688 C 713.1875 862.28125 714.238281 862.148438 715.273438 862.058594 C 715.3125 862.058594 715.351562 862.058594 715.386719 862.050781 C 716.472656 861.960938 717.542969 861.910156 718.597656 861.898438 C 718.621094 861.898438 718.652344 861.898438 718.679688 861.898438 C 719.714844 861.890625 720.734375 861.929688 721.738281 862 C 724.878906 862.210938 727.851562 862.800781 730.597656 863.808594 C 732.285156 864.421875 734.035156 865.179688 735.832031 866.050781 L 808.074219 793.511719 C 809.769531 796.121094 811.910156 799.070312 814.566406 802.328125 L 745.609375 871.570312 C 748.507812 873.398438 751.425781 875.398438 754.300781 877.488281 L 821.402344 810.109375 C 825.832031 814.828125 831.214844 820.078125 837.816406 825.878906 C 838.90625 826.839844 839.929688 827.691406 840.914062 828.46875 C 834.980469 822.359375 828.9375 815.441406 823.523438 807.980469 C 822.585938 806.679688 821.667969 805.371094 820.769531 804.050781 C 820.613281 803.820312 820.460938 803.589844 820.308594 803.371094 C 819.421875 802.039062 818.554688 800.710938 817.722656 799.359375 C 815.707031 796.089844 813.855469 792.75 812.214844 789.351562 L 812.230469 789.328125 C 811.460938 787.730469 810.734375 786.121094 810.058594 784.5 C 809.945312 784.230469 809.832031 783.949219 809.722656 783.679688 C 809.484375 783.089844 809.25 782.5 809.027344 781.921875 C 808.660156 780.929688 808.300781 779.949219 807.972656 778.960938 C 807.511719 777.558594 807.105469 776.179688 806.742188 774.789062 L 806.738281 774.789062 C 805.554688 770.308594 804.855469 765.878906 804.648438 761.511719 L 712.5 854.039062 "/>
<path fill-rule="nonzero" fill="rgb(100%, 100%, 100%)" fill-opacity="1" d="M 811.566406 673.511719 C 748.984375 700.199219 685.863281 747.949219 668.007812 761.949219 C 667.746094 762.148438 667.5 762.371094 667.269531 762.601562 C 666.015625 763.859375 665.226562 765.46875 664.984375 767.261719 C 664.667969 769.640625 664.367188 772.289062 664.039062 775.160156 C 663.628906 778.789062 663.164062 782.828125 662.582031 787.148438 C 684.082031 767.261719 767.792969 692.851562 847.417969 663.121094 C 832.609375 666.191406 820.578125 669.660156 811.566406 673.511719 "/>
<path fill-rule="nonzero" fill="rgb(100%, 100%, 100%)" fill-opacity="1" d="M 974.132812 649.46875 C 924.667969 651.921875 884.078125 656.121094 853.859375 661.839844 L 873.550781 678.148438 C 859.75 683.300781 811.105469 703.988281 807.417969 741.011719 C 807.414062 741.039062 807.414062 741.070312 807.410156 741.101562 C 810.582031 731.390625 816.402344 722.171875 824.855469 713.679688 C 836.964844 701.519531 854.1875 690.941406 877.417969 681.359375 C 878.214844 681.03125 879 680.691406 879.8125 680.371094 C 880.589844 680.058594 881.417969 679.730469 882.269531 679.398438 C 882.429688 679.339844 882.585938 679.28125 882.75 679.210938 C 883.582031 678.890625 884.445312 678.570312 885.339844 678.230469 C 885.515625 678.171875 885.695312 678.101562 885.871094 678.03125 C 887.878906 677.289062 890.039062 676.5 892.367188 675.679688 L 878.515625 664.621094 L 974.285156 650.230469 L 974.53125 649.710938 C 974.515625 649.628906 974.496094 649.539062 974.46875 649.46875 C 974.382812 649.46875 974.269531 649.46875 974.132812 649.46875 "/>
<path fill-rule="nonzero" fill="rgb(100%, 100%, 100%)" fill-opacity="1" d="M 1108.25 1109.679688 L 847.539062 850.039062 L 841.355469 856.25 L 1101.96875 1115.789062 L 1108.25 1109.679688 "/>
<path fill-rule="nonzero" fill="rgb(100%, 100%, 100%)" fill-opacity="1" d="M 1436.621094 1436.691406 L 1127.660156 1129 L 1121.460938 1135.199219 L 1442.328125 1454.75 C 1443.429688 1448.378906 1441.539062 1441.589844 1436.621094 1436.691406 "/>
<path fill-rule="nonzero" fill="rgb(100%, 100%, 100%)" fill-opacity="1" d="M 1077.328125 1179.328125 L 1386.398438 1487.121094 C 1393.191406 1493.878906 1403.550781 1494.871094 1411.421875 1490.148438 L 1091.671875 1164.988281 L 1077.328125 1179.328125 "/>
<path fill-rule="nonzero" fill="rgb(100%, 100%, 100%)" fill-opacity="1" d="M 1110.609375 1146.050781 L 1095.578125 1161.078125 L 1424.390625 1478.039062 L 1434.148438 1468.25 L 1110.609375 1146.050781 "/>
<path fill-rule="nonzero" fill="rgb(100%, 100%, 100%)" fill-opacity="1" d="M 1396.898438 1488.628906 L 1411.421875 1490.148438 "/>
<path fill-rule="nonzero" fill="rgb(100%, 100%, 100%)" fill-opacity="1" d="M 1090.980469 1126.5 L 830.53125 867.121094 L 817.753906 879.949219 L 934.78125 1001.511719 L 809.851562 887.878906 L 797.320312 900.46875 L 1057.269531 1159.339844 L 1072.011719 1144.988281 L 947.023438 1017.878906 L 1075.429688 1141.660156 L 1090.980469 1126.5 "/>
<path fill-rule="nonzero" fill="rgb(16.419983%, 15.887451%, 15.855408%)" fill-opacity="1" d="M 1126.75 631.539062 C 1190.789062 634.710938 1259.761719 641.761719 1295.480469 656.988281 C 1359.480469 684.300781 1422.828125 731.949219 1443.070312 747.820312 C 1448.421875 752.011719 1451.898438 758.128906 1452.808594 764.878906 C 1455.519531 785.160156 1457.101562 824.640625 1480.511719 846.730469 C 1500.21875 865.328125 1525.230469 869.28125 1540.089844 869.789062 C 1548.851562 870.101562 1557.160156 873.730469 1563.351562 879.941406 L 1579.441406 896.101562 C 1592.910156 909.621094 1592.859375 931.5 1579.339844 944.96875 L 1524.121094 999.960938 C 1510.601562 1013.421875 1488.71875 1013.378906 1475.25 999.859375 L 1458.578125 983.109375 C 1452.671875 977.171875 1449.121094 969.289062 1448.589844 960.929688 C 1444.808594 901.839844 1392.148438 874.609375 1375.558594 880.671875 C 1357.871094 887.128906 1326.851562 916.710938 1326.851562 916.710938 C 1321.53125 922.019531 1313.070312 922.25 1307.46875 917.410156 L 724.460938 1498.019531 C 710.410156 1512.011719 687.675781 1511.96875 673.683594 1497.921875 L 652.417969 1476.558594 C 638.425781 1462.511719 638.472656 1439.78125 652.523438 1425.789062 L 1235.179688 845.53125 C 1230.078125 839.75 1230.488281 830.871094 1236.269531 825.601562 C 1248.828125 814.140625 1268.128906 794.03125 1274.988281 773.320312 C 1285.480469 741.601562 1261.800781 716.46875 1213.480469 697.019531 C 1195.570312 689.808594 1159.28125 678.660156 1120.710938 667.46875 C 1099.808594 661.410156 1105.011719 630.46875 1126.75 631.539062 "/>
<path fill-rule="nonzero" fill="rgb(100%, 100%, 100%)" fill-opacity="1" d="M 1535.898438 897.589844 C 1519.808594 894.648438 1476.230469 883.789062 1459.800781 850.769531 C 1459.640625 850.460938 1459.519531 850.160156 1459.378906 849.851562 C 1461.539062 852.75 1463.910156 855.539062 1466.53125 858.171875 C 1466.53125 858.171875 1466.53125 858.179688 1466.53125 858.179688 C 1467.078125 858.71875 1467.628906 859.261719 1468.191406 859.789062 C 1492.570312 882.789062 1523.308594 887.171875 1539.460938 887.738281 C 1541.28125 887.800781 1543.039062 888.199219 1544.699219 888.828125 L 1544.71875 888.808594 C 1544.898438 888.871094 1545.058594 888.960938 1545.230469 889.03125 C 1545.46875 889.128906 1545.710938 889.230469 1545.949219 889.339844 C 1546.421875 889.558594 1546.871094 889.808594 1547.320312 890.070312 C 1547.390625 890.109375 1547.46875 890.148438 1547.550781 890.191406 C 1547.550781 890.191406 1547.550781 890.199219 1547.539062 890.199219 C 1548.648438 890.871094 1549.699219 891.671875 1550.628906 892.609375 L 1566.71875 908.769531 C 1573.179688 915.25 1573.160156 925.789062 1566.671875 932.25 L 1528.539062 970.21875 L 1495.890625 937.441406 L 1535.898438 897.589844 "/>
<path fill-rule="nonzero" fill="rgb(100%, 100%, 100%)" fill-opacity="1" d="M 1511.460938 987.238281 C 1504.96875 993.699219 1494.441406 993.671875 1487.980469 987.191406 L 1471.300781 970.441406 C 1468.460938 967.589844 1466.761719 963.808594 1466.5 959.78125 C 1466.019531 952.21875 1464.871094 945.210938 1463.238281 938.730469 L 1511.5 987.191406 L 1511.460938 987.238281 "/>
<path fill-rule="nonzero" fill="rgb(100%, 100%, 100%)" fill-opacity="1" d="M 1387.5 854.039062 C 1406.089844 858.929688 1443.179688 873.660156 1454.378906 914.679688 C 1454.488281 915.101562 1454.578125 915.480469 1454.691406 915.890625 C 1448.71875 904.191406 1441.421875 895.160156 1434.851562 888.570312 C 1422.78125 876.449219 1408.710938 867.941406 1395.589844 864.140625 C 1395.378906 864.078125 1395.171875 864.019531 1394.960938 863.960938 C 1393.941406 863.671875 1392.929688 863.421875 1391.929688 863.191406 C 1391.730469 863.148438 1391.539062 863.109375 1391.351562 863.070312 C 1390.320312 862.851562 1389.300781 862.648438 1388.300781 862.5 C 1388.148438 862.46875 1388.011719 862.460938 1387.871094 862.429688 C 1386.808594 862.28125 1385.761719 862.148438 1384.730469 862.058594 C 1384.691406 862.058594 1384.648438 862.058594 1384.609375 862.050781 C 1383.53125 861.960938 1382.460938 861.910156 1381.398438 861.898438 C 1381.378906 861.898438 1381.351562 861.898438 1381.320312 861.898438 C 1380.28125 861.890625 1379.261719 861.929688 1378.261719 862 C 1375.121094 862.210938 1372.148438 862.800781 1369.398438 863.808594 C 1367.710938 864.421875 1365.960938 865.179688 1364.171875 866.050781 L 1291.929688 793.511719 C 1290.230469 796.121094 1288.089844 799.070312 1285.429688 802.328125 L 1354.390625 871.570312 C 1351.488281 873.398438 1348.570312 875.398438 1345.699219 877.488281 L 1278.601562 810.109375 C 1274.171875 814.828125 1268.789062 820.078125 1262.179688 825.878906 C 1261.089844 826.839844 1260.070312 827.691406 1259.089844 828.46875 C 1265.019531 822.359375 1271.058594 815.441406 1276.480469 807.980469 C 1277.421875 806.679688 1278.328125 805.371094 1279.230469 804.050781 C 1279.378906 803.820312 1279.539062 803.589844 1279.691406 803.371094 C 1280.578125 802.039062 1281.441406 800.710938 1282.28125 799.359375 C 1284.289062 796.089844 1286.148438 792.75 1287.789062 789.351562 L 1287.769531 789.328125 C 1288.539062 787.730469 1289.261719 786.121094 1289.941406 784.5 C 1290.050781 784.230469 1290.171875 783.949219 1290.28125 783.679688 C 1290.519531 783.089844 1290.75 782.5 1290.96875 781.921875 C 1291.339844 780.929688 1291.699219 779.949219 1292.03125 778.960938 C 1292.488281 777.558594 1292.890625 776.179688 1293.261719 774.789062 C 1294.449219 770.308594 1295.148438 765.878906 1295.351562 761.511719 L 1387.5 854.039062 "/>
<path fill-rule="nonzero" fill="rgb(100%, 100%, 100%)" fill-opacity="1" d="M 1288.429688 673.511719 C 1351.011719 700.199219 1414.140625 747.949219 1431.988281 761.949219 C 1432.25 762.148438 1432.5 762.371094 1432.730469 762.601562 C 1433.980469 763.859375 1434.769531 765.46875 1435.011719 767.261719 C 1435.328125 769.640625 1435.628906 772.289062 1435.960938 775.160156 C 1436.371094 778.789062 1436.828125 782.828125 1437.421875 787.148438 C 1415.921875 767.261719 1332.210938 692.851562 1252.578125 663.121094 C 1267.390625 666.191406 1279.421875 669.660156 1288.429688 673.511719 "/>
<path fill-rule="nonzero" fill="rgb(100%, 100%, 100%)" fill-opacity="1" d="M 1125.871094 649.46875 C 1175.328125 651.921875 1215.921875 656.121094 1246.140625 661.839844 L 1226.449219 678.148438 C 1240.25 683.300781 1288.890625 703.988281 1292.578125 741.011719 C 1292.578125 741.039062 1292.578125 741.070312 1292.589844 741.101562 C 1289.421875 731.390625 1283.601562 722.171875 1275.140625 713.679688 C 1263.039062 701.519531 1245.808594 690.941406 1222.578125 681.359375 C 1221.789062 681.03125 1221 680.691406 1220.191406 680.371094 C 1219.410156 680.058594 1218.578125 679.730469 1217.730469 679.398438 C 1217.570312 679.339844 1217.410156 679.28125 1217.25 679.210938 C 1216.421875 678.890625 1215.558594 678.570312 1214.660156 678.230469 C 1214.480469 678.171875 1214.308594 678.101562 1214.128906 678.03125 C 1212.121094 677.289062 1209.960938 676.5 1207.628906 675.679688 L 1221.488281 664.621094 L 1125.71875 650.230469 L 1125.46875 649.710938 C 1125.488281 649.628906 1125.5 649.539062 1125.53125 649.46875 C 1125.621094 649.46875 1125.730469 649.46875 1125.871094 649.46875 "/>
<path fill-rule="nonzero" fill="rgb(100%, 100%, 100%)" fill-opacity="1" d="M 1258.640625 856.25 L 657.667969 1454.75 C 656.566406 1448.378906 658.464844 1441.589844 663.382812 1436.691406 L 1252.460938 850.039062 L 1258.640625 856.25 "/>
<path fill-rule="nonzero" fill="rgb(100%, 100%, 100%)" fill-opacity="1" d="M 713.601562 1487.121094 C 706.8125 1493.878906 696.449219 1494.871094 688.582031 1490.148438 L 1152.980469 1017.878906 L 675.609375 1478.039062 L 665.855469 1468.25 L 1269.46875 867.121094 L 1302.679688 900.46875 L 713.601562 1487.121094 "/>
</svg>
